<svg width="32" height="32" viewBox="0 0 32 32" fill="none" xmlns="http://www.w3.org/2000/svg">
<path fill-rule="evenodd" clip-rule="evenodd" d="M31.9178 16.2639C31.9178 24.7138 24.9617 31.5639 16.3808 31.5639C7.8 31.5639 0.843872 24.7138 0.843872 16.2639C0.843872 7.81391 7.8 0.963867 16.3808 0.963867C24.9617 0.963867 31.9178 7.81391 31.9178 16.2639ZM16.3808 25.6139C15.9041 25.6139 15.5177 25.2333 15.5177 24.7639V17.1139H7.74919C7.27247 17.1139 6.88602 16.7333 6.88602 16.2639C6.88602 15.7944 7.27247 15.4139 7.74919 15.4139H15.5177V7.76387C15.5177 7.29443 15.9041 6.91387 16.3808 6.91387C16.8575 6.91387 17.244 7.29443 17.244 7.76387V15.4139H25.0125C25.4892 15.4139 25.8756 15.7944 25.8756 16.2639C25.8756 16.7333 25.4892 17.1139 25.0125 17.1139H17.244V24.7639C17.244 25.2333 16.8575 25.6139 16.3808 25.6139Z" fill="black"/>
</svg>
