<svg width="107" height="24" viewBox="0 0 107 24" fill="none" xmlns="http://www.w3.org/2000/svg">
<path d="M64.9422 0V7.83305C64.7117 7.95459 64.4624 8.07613 64.1837 8.21234L64.1019 8.25635C64.037 8.28987 63.9699 8.32131 63.905 8.35065L63.7918 8.40722C63.4481 8.56857 63.0772 8.72993 62.6812 8.89548V3.23758C62.6812 1.6387 62.5198 0.884312 61.8975 0.383483L64.9422 0Z" fill="#2054FA"/>
<path d="M5.67676 0H0C1.34532 0.373002 1.69527 1.25731 1.69527 4.01292V19.7293C1.69527 22.4912 1.34532 23.3713 0 23.7422H5.67676C4.36077 23.3357 4.01292 22.4556 4.01292 19.7293V4.01292C4.0192 1.28665 4.36077 0.408626 5.67676 0Z" fill="#2054FA"/>
<path d="M24.9347 23.7464C24.3374 23.1492 24.0545 22.1475 24.0545 20.3621V0L21.0181 0.379288C21.6468 0.880117 21.7935 1.6366 21.7935 3.23758V7.37203C20.3162 6.30683 18.535 5.74615 16.7139 5.77316C11.2656 5.77316 7.74512 10.1737 7.74512 15.2784C7.74512 20.71 11.7015 24 16.3745 24C18.5664 24 20.6703 23.2456 21.9255 21.5252V23.8428L24.9347 23.7464ZM21.7914 20.2658C20.7604 21.961 19.0043 22.9019 16.9298 22.9019C12.6654 22.9019 10.1571 18.8848 10.1571 14.2097C10.1571 9.53461 12.7304 6.87539 16.4289 6.87539C18.5643 6.87539 20.5068 7.82047 21.7914 10.6473V20.2658Z" fill="#2054FA"/>
<path d="M36.3531 22.9019C32.4282 22.9019 29.5783 19.7587 29.5783 14.9683C29.571 14.3373 29.613 13.7068 29.704 13.0824H42.9058C42.8157 8.91437 40.6196 5.77319 35.5358 5.77319C30.3599 5.77319 27.0322 9.69809 27.0322 14.9683C27.0322 20.3622 30.6742 24 36.0681 24C38.6414 24 41.1854 23.0277 42.6878 21.586L42.9728 17.0031C41.6233 21.0202 39.3623 22.9019 36.3531 22.9019ZM35.5379 6.87124C38.5471 6.87124 40.213 8.88294 40.431 12.1415H29.8612C30.5799 8.81588 32.6545 6.87124 35.5379 6.87124Z" fill="#2054FA"/>
<path d="M66.5726 23.7464H61.0488C61.3663 23.6617 61.6579 23.4997 61.8975 23.2749C62.5115 22.7007 62.6812 21.7075 62.6812 20.3957V14.0546L63.1737 13.91C63.7437 13.7445 64.3283 13.5538 64.9423 13.3317V20.3873C64.9423 22.1831 65.2818 23.342 66.5726 23.7464Z" fill="#2054FA"/>
<path d="M61.8973 23.2749C61.6577 23.4997 61.3661 23.6617 61.0486 23.7464H62.5322L61.8973 23.2749ZM68.5443 23.7464H74.0639C72.7835 23.342 72.4357 22.1832 72.4357 20.3936V11.3451C72.4357 11.3451 72.4357 9.47174 72.4357 8.01116C72.4357 7.07866 72.4357 6.3138 72.4357 6.30752V6.05186H70.0782L69.6088 6.5925C69.0574 7.15136 68.4547 7.65719 67.8088 8.10337C66.9049 8.75075 65.9423 9.312 64.9337 9.77978C64.7996 9.85522 64.6592 9.91599 64.5146 9.98933C63.909 10.2722 63.2887 10.5342 62.6664 10.7814C62.0922 11.0036 61.5075 11.2173 60.9208 11.4101C60.1706 11.6658 59.412 11.8942 58.6451 12.1205V11.1691C58.6451 7.52919 56.2289 5.80249 52.6519 5.80249C50.1373 5.80249 47.7903 6.67842 46.2836 7.74714L46.4093 10.5509C46.9447 9.58566 47.6781 8.74443 48.5614 8.08242C49.7119 7.21906 51.1871 6.87539 52.5911 6.90054C54.7516 6.94035 56.384 7.99859 56.384 11.5756V12.7973L52.5555 13.7738C49.2928 14.612 45.1855 15.9679 45.1855 19.7021C45.1855 22.3068 47.1637 23.9706 50.4872 23.9706C52.6079 23.9706 54.1627 23.2079 55.2482 22.0532V20.7603C54.759 21.4105 54.1263 21.939 53.3993 22.3047C52.6724 22.6703 51.8709 22.8632 51.0572 22.8684C48.9617 22.8684 47.7337 21.4874 47.7337 19.4443C47.7337 16.2172 50.7135 15.3979 52.721 14.8656L56.3882 13.864V23.8009H57.679L59.6656 23.7841C58.9112 23.2225 58.6493 21.8982 58.6493 20.3894V13.3003C59.9883 12.9817 61.3336 12.6507 62.6706 12.2525C63.4291 12.0304 64.1772 11.7726 64.9274 11.4897L65.1244 11.4206C66.4022 10.9392 67.6338 10.343 68.8041 9.63938C69.2617 9.36515 69.7052 9.0679 70.1327 8.74879C70.1515 8.95834 70.1599 9.18884 70.1599 9.43821V9.52623V11.3514V20.402C70.1746 22.1832 69.8603 23.3755 68.5443 23.7464Z" fill="#2054FA"/>
<path d="M70.1748 20.3957V11.3451V9.51992V9.43191C70.1748 9.18254 70.1748 8.95204 70.1475 8.74249C69.72 9.0616 69.2766 9.35885 68.819 9.63308C67.6487 10.3367 66.4171 10.9329 65.1392 11.4143L64.9423 11.4834C64.1921 11.7663 63.444 12.0241 62.6854 12.2462C61.3485 12.6506 60.0031 12.9817 58.6641 13.2939V20.3894C58.6641 21.8939 58.926 23.2225 59.6804 23.7841L57.6939 23.8009H56.4072V13.8702L52.7401 14.8719C50.7326 15.4041 47.7527 16.2235 47.7527 19.4506C47.7527 21.4937 48.9723 22.8747 51.0762 22.8747C51.8899 22.8695 52.6914 22.6766 53.4184 22.3109C54.1453 21.9453 54.778 21.4168 55.2673 20.7666V22.0553C54.1818 23.2099 52.6269 23.9727 50.5063 23.9727C47.1828 23.9727 45.2046 22.3089 45.2046 19.7041C45.2046 15.9699 49.3118 14.6204 52.5745 13.7759L56.4072 12.7973V11.5777C56.4072 8.00067 54.7748 6.94243 52.6143 6.90261C51.2103 6.87747 49.7351 7.22114 48.5847 8.08449C47.7014 8.7465 46.968 9.58772 46.4326 10.553L46.3068 7.7492C47.8135 6.68049 50.1668 5.80457 52.6751 5.80457C56.2522 5.80457 58.6683 7.53127 58.6683 11.1712V12.1226C59.4352 11.8962 60.1938 11.6678 60.944 11.4122C61.5308 11.2026 62.1154 10.9931 62.6896 10.7835C63.3182 10.5362 63.9322 10.2743 64.5378 9.99141C64.6719 9.92645 64.8123 9.86568 64.9569 9.78186C65.9656 9.31408 66.9281 8.75282 67.832 8.10544C68.478 7.65927 69.0806 7.15343 69.632 6.59458L70.0973 6.05393H72.4547V6.3012C72.4547 6.3012 72.4547 7.07235 72.4547 8.00486C72.4547 9.47172 72.4547 11.3388 72.4547 11.3388V20.3894C72.4547 22.1768 72.8026 23.3357 74.0829 23.7422H68.5445C69.8605 23.3755 70.1748 22.1831 70.1748 20.3957Z" fill="#2054FA"/>
<path d="M71.1785 3.83059C71.4099 3.84201 71.6412 3.80534 71.8577 3.72289C72.0742 3.64043 72.2713 3.51399 72.4365 3.35155C72.6017 3.1891 72.7314 2.99418 72.8175 2.77908C72.9036 2.56397 72.9442 2.33336 72.9366 2.10179C72.9366 1.09804 72.2179 0.379272 71.1785 0.379272C70.1391 0.379272 69.3994 1.09804 69.3994 2.11017C69.3994 3.12231 70.1454 3.83059 71.1785 3.83059Z" fill="#2054FA"/>
<path d="M91.6121 6.02667H87.9973C88.3096 6.23622 89.219 6.55683 87.5908 10.6054L83.6659 20.425L78.7729 9.00649C77.9242 7.02832 78.0541 6.30957 78.5193 6.02667H74.4771C74.8857 6.23622 75.5751 6.90469 76.8261 9.81956L82.7858 23.7464H83.4144L89.1855 9.49685C90.2563 6.90469 91.0065 6.21527 91.6121 6.02667Z" fill="#2054FA"/>
<path d="M100.162 22.9019C96.2411 22.9019 93.3891 19.7587 93.3891 14.9683C93.3794 14.3374 93.4201 13.7068 93.5107 13.0824H106.712C106.62 8.91437 104.422 5.77319 99.3425 5.77319C94.1666 5.77319 90.8389 9.69809 90.8389 14.9683C90.8389 20.3622 94.4809 24 99.8768 24C102.444 24 104.988 23.0277 106.494 21.586L106.777 17.0031C105.443 21.0202 103.177 22.9019 100.162 22.9019ZM99.3488 6.87124C102.362 6.87124 104.022 8.88294 104.244 12.1415H93.672C94.3908 8.81588 96.459 6.87124 99.3488 6.87124Z" fill="#2054FA"/>
<path d="M71.7441 6.05182H73.3807C73.3807 6.05182 72.444 6.37872 72.444 7.72823L71.7441 6.05182Z" fill="#2054FA"/>
</svg>
