<svg width="993" height="224" viewBox="0 0 993 224" fill="none" xmlns="http://www.w3.org/2000/svg">
<path d="M603.946 0V72.8453C601.802 73.9756 599.483 75.1059 596.891 76.3726L596.131 76.7819C595.527 77.0937 594.903 77.3861 594.299 77.6589L593.247 78.185C590.051 79.6855 586.601 81.1861 582.918 82.7257V30.1086C582.918 15.2395 581.418 8.22388 575.63 3.5663L603.946 0Z" fill="white"/>
<path d="M52.7924 0H0C12.5112 3.46883 15.7656 11.6927 15.7656 37.3191V183.478C15.7656 209.162 12.5112 217.347 0 220.797H52.7924C40.5541 217.016 37.3191 208.831 37.3191 183.478V37.3191C37.3776 11.9655 40.5541 3.80012 52.7924 0Z" fill="white"/>
<path d="M231.885 220.836C226.331 215.282 223.7 205.966 223.7 189.363V0L195.462 3.52728C201.309 8.18486 202.673 15.22 202.673 30.1086V68.558C188.935 58.6519 172.37 53.4378 155.435 53.6889C104.766 53.6889 72.0269 94.6132 72.0269 142.085C72.0269 192.598 108.82 223.194 152.278 223.194C172.662 223.194 192.228 216.178 203.901 200.179V221.732L231.885 220.836ZM202.653 188.466C193.065 204.232 176.735 212.982 157.442 212.982C117.784 212.982 94.4573 175.624 94.4573 132.147C94.4573 88.6694 118.388 63.9394 152.784 63.9394C172.642 63.9394 190.707 72.7284 202.653 99.0174V188.466Z" fill="white"/>
<path d="M338.074 212.982C301.574 212.982 275.07 183.75 275.07 139.201C275.003 133.334 275.394 127.469 276.239 121.662H399.012C398.175 82.9012 377.751 53.6891 330.474 53.6891C282.339 53.6891 251.393 90.1897 251.393 139.201C251.393 189.363 285.262 223.194 335.424 223.194C359.355 223.194 383.013 214.151 396.986 200.744L399.636 158.124C387.086 195.482 366.059 212.982 338.074 212.982ZM330.493 63.9006C358.478 63.9006 373.971 82.6089 375.997 112.912H277.701C284.385 81.9853 303.678 63.9006 330.493 63.9006Z" fill="white"/>
<path d="M619.107 220.836H567.737C570.69 220.048 573.401 218.541 575.63 216.451C581.34 211.111 582.918 201.874 582.918 189.675V130.705L587.498 129.36C592.799 127.82 598.236 126.047 603.946 123.981V189.597C603.946 206.298 607.103 217.074 619.107 220.836Z" fill="white"/>
<path d="M575.63 216.451C573.401 218.541 570.69 220.048 567.737 220.836H581.535L575.63 216.451ZM637.445 220.836H688.776C676.869 217.075 673.634 206.298 673.634 189.655V105.507C673.634 105.507 673.634 88.0849 673.634 74.5019C673.634 65.8298 673.634 58.7169 673.634 58.6584V56.2808H651.71L647.345 61.3087C642.217 66.5059 636.612 71.21 630.605 75.3593C622.199 81.3798 613.247 86.5994 603.868 90.9496C602.62 91.6511 601.315 92.2163 599.97 92.8983C594.338 95.5292 588.57 97.9652 582.782 100.265C577.442 102.33 572.005 104.318 566.549 106.111C559.572 108.489 552.517 110.613 545.385 112.718V103.87C545.385 70.0197 522.915 53.9618 489.65 53.9618C466.264 53.9618 444.438 62.1077 430.426 72.0465L431.596 98.1212C436.575 89.1443 443.395 81.321 451.61 75.1645C462.308 67.1355 476.028 63.9395 489.085 64.1734C509.176 64.5436 524.358 74.385 524.358 107.651V119.012L488.753 128.093C458.411 135.888 420.215 148.497 420.215 183.224C420.215 207.448 438.611 222.921 469.519 222.921C489.241 222.921 503.7 215.827 513.795 205.09V193.066C509.245 199.112 503.361 204.027 496.601 207.428C489.841 210.828 482.387 212.622 474.82 212.67C455.332 212.67 443.912 199.828 443.912 180.827C443.912 150.816 471.624 143.196 490.293 138.246L524.396 128.931V221.342H536.401L554.875 221.186C547.86 215.964 545.424 203.647 545.424 189.616V123.689C557.877 120.727 570.388 117.648 582.821 113.945C589.875 111.88 596.833 109.483 603.809 106.852L605.641 106.209C617.525 101.732 628.978 96.1874 639.862 89.6439C644.117 87.0936 648.241 84.3293 652.217 81.3616C652.392 83.3104 652.47 85.454 652.47 87.773V88.5916V105.565V189.733C652.607 206.298 649.683 217.386 637.445 220.836Z" fill="white"/>
<path d="M652.607 189.674V105.507V88.5326V87.7142C652.607 85.3951 652.607 83.2515 652.354 81.3027C648.378 84.2704 644.254 87.0348 639.998 89.585C629.115 96.1285 617.661 101.673 605.778 106.15L603.946 106.793C596.969 109.424 590.012 111.821 582.958 113.886C570.525 117.647 558.013 120.726 545.561 123.63V189.616C545.561 203.608 547.997 215.963 555.012 221.186L536.538 221.342H524.572V128.989L490.469 138.305C471.799 143.254 444.088 150.874 444.088 180.885C444.088 199.886 455.43 212.728 474.995 212.728C482.563 212.68 490.016 210.886 496.777 207.486C503.537 204.085 509.421 199.17 513.971 193.124V205.109C503.876 215.846 489.416 222.94 469.695 222.94C438.787 222.94 420.391 207.467 420.391 183.243C420.391 148.516 458.587 135.966 488.929 128.112L524.572 119.012V107.67C524.572 74.404 509.391 64.5627 489.299 64.1924C476.243 63.9586 462.523 67.1546 451.824 75.1835C443.61 81.3401 436.79 89.1632 431.81 98.1401L430.641 72.0654C444.653 62.1267 466.538 53.9808 489.865 53.9808C523.13 53.9808 545.6 70.0387 545.6 103.889V112.737C552.732 110.632 559.787 108.508 566.763 106.13C572.22 104.181 577.657 102.233 582.997 100.284C588.843 97.9843 594.553 95.5482 600.185 92.9174C601.432 92.3133 602.738 91.7481 604.082 90.9686C613.462 86.6184 622.414 81.3989 630.82 75.3784C636.827 71.2291 642.432 66.525 647.56 61.3278L651.886 56.2999H673.81V58.5994C673.81 58.5994 673.81 65.7709 673.81 74.443C673.81 88.0845 673.81 105.448 673.81 105.448V189.616C673.81 206.239 677.045 217.016 688.952 220.796H637.445C649.684 217.386 652.607 206.297 652.607 189.674Z" fill="white"/>
<path d="M661.942 35.6237C664.094 35.7299 666.244 35.3889 668.258 34.6221C670.271 33.8553 672.104 32.6794 673.641 31.1687C675.177 29.658 676.383 27.8453 677.184 25.8449C677.985 23.8445 678.362 21.6998 678.292 19.5463C678.292 10.2117 671.608 3.52734 661.942 3.52734C652.276 3.52734 645.396 10.2117 645.396 19.6243C645.396 29.0369 652.334 35.6237 661.942 35.6237Z" fill="white"/>
<path d="M851.966 56.0466H818.35C821.254 57.9954 829.711 60.977 814.569 98.6274L778.069 189.947L732.565 83.7582C724.672 65.3617 725.88 58.6775 730.207 56.0466H692.615C696.415 57.9954 702.826 64.212 714.461 91.3195L769.884 220.835H775.73L829.399 88.3184C839.358 64.212 846.334 57.8005 851.966 56.0466Z" fill="white"/>
<path d="M931.477 212.982C895.015 212.982 868.492 183.75 868.492 139.201C868.403 133.334 868.781 127.469 869.623 121.662H992.396C991.538 82.9012 971.096 53.6891 923.857 53.6891C875.723 53.6891 844.776 90.1897 844.776 139.201C844.776 189.363 878.646 223.194 928.827 223.194C952.699 223.194 976.357 214.151 990.369 200.744L993 158.124C980.586 195.482 959.52 212.982 931.477 212.982ZM923.916 63.9006C951.939 63.9006 967.374 82.6089 969.439 112.912H871.123C877.808 81.9853 897.042 63.9006 923.916 63.9006Z" fill="white"/>
<path d="M667.203 56.2804H682.423C682.423 56.2804 673.712 59.3205 673.712 71.8706L667.203 56.2804Z" fill="white"/>
</svg>
